<svg viewBox="0 0 864 390" fill="none" xmlns="http://www.w3.org/2000/svg">
    <line x1="70" y1="39.5" x2="834" y2="39.5001" stroke="#717171" stroke-opacity="0.3" />
    <line x1="70" y1="119.5" x2="834" y2="119.5" stroke="#717171" stroke-opacity="0.3" />
    <line x1="70" y1="199.5" x2="834" y2="199.5" stroke="#717171" stroke-opacity="0.3" />
    <line x1="70" y1="279.5" x2="834" y2="279.5" stroke="#717171" stroke-opacity="0.3" />
    <line x1="70" y1="319.5" x2="834" y2="319.5" stroke="#717171" stroke-opacity="0.3" />
    <line x1="70" y1="239.5" x2="834" y2="239.5" stroke="#717171" stroke-opacity="0.3" />
    <line x1="70" y1="159.5" x2="834" y2="159.5" stroke="#717171" stroke-opacity="0.3" />
    <line x1="69" y1="79.5" x2="833" y2="79.5001" stroke="#717171" stroke-opacity="0.3" />
    <line x1="70" y1="359.5" x2="833" y2="359.5" stroke="#717171" stroke-opacity="0.3" />
    <line x1="109.5" y1="360" x2="109.5" y2="40" stroke="#F97316" stroke-opacity="0.1"
        stroke-dasharray="8 8" />
    <line x1="194.5" y1="360" x2="194.5" y2="40" stroke="#F97316" stroke-opacity="0.1"
        stroke-dasharray="8 8" />
    <line x1="279.5" y1="360" x2="279.5" y2="40" stroke="#F97316" stroke-opacity="0.1"
        stroke-dasharray="8 8" />
    <line x1="364.5" y1="360" x2="364.5" y2="40" stroke="#F97316" stroke-opacity="0.1"
        stroke-dasharray="8 8" />
    <line x1="449.5" y1="360" x2="449.5" y2="40" stroke="#F97316" stroke-opacity="0.1"
        stroke-dasharray="8 8" />
    <line x1="534.5" y1="360" x2="534.5" y2="40" stroke="#F97316" stroke-opacity="0.1"
        stroke-dasharray="8 8" />
    <line x1="619.5" y1="360" x2="619.5" y2="40" stroke="#F97316" stroke-opacity="0.1"
        stroke-dasharray="8 8" />
    <line x1="704.5" y1="360" x2="704.5" y2="40" stroke="#F97316" stroke-opacity="0.1"
        stroke-dasharray="8 8" />
    <line x1="704.5" y1="360" x2="704.5" y2="40" stroke="#F97316" stroke-opacity="0.1"
        stroke-dasharray="8 8" />
    <line x1="789.5" y1="360" x2="789.5" y2="40" stroke="#F97316" stroke-opacity="0.1"
        stroke-dasharray="8 8" />
    <rect x="195" y="79" width="595" height="281" fill="#F97316" fill-opacity="0.1" />
    <path
        d="M34.9318 45.1591C34.1515 45.1591 33.4621 45.0208 32.8636 44.7443C32.2689 44.464 31.8049 44.0795 31.4716 43.5909C31.1383 43.0985 30.9735 42.5379 30.9773 41.9091C30.9735 41.4167 31.0701 40.9621 31.267 40.5455C31.464 40.125 31.733 39.7746 32.0739 39.4943C32.4186 39.2102 32.803 39.0303 33.2273 38.9545V38.8864C32.6705 38.7424 32.2273 38.4299 31.8977 37.9489C31.5682 37.464 31.4053 36.9129 31.4091 36.2955C31.4053 35.7045 31.5549 35.1761 31.858 34.7102C32.161 34.2443 32.5777 33.8769 33.108 33.608C33.642 33.339 34.25 33.2045 34.9318 33.2045C35.6061 33.2045 36.2083 33.339 36.7386 33.608C37.2689 33.8769 37.6856 34.2443 37.9886 34.7102C38.2955 35.1761 38.4508 35.7045 38.4545 36.2955C38.4508 36.9129 38.2822 37.464 37.9489 37.9489C37.6193 38.4299 37.1818 38.7424 36.6364 38.8864V38.9545C37.0568 39.0303 37.4356 39.2102 37.7727 39.4943C38.1098 39.7746 38.3788 40.125 38.5795 40.5455C38.7803 40.9621 38.8826 41.4167 38.8864 41.9091C38.8826 42.5379 38.7121 43.0985 38.375 43.5909C38.0417 44.0795 37.5777 44.464 36.983 44.7443C36.392 45.0208 35.7083 45.1591 34.9318 45.1591ZM34.9318 43.9091C35.4583 43.9091 35.9129 43.8239 36.2955 43.6534C36.678 43.483 36.9735 43.2424 37.1818 42.9318C37.3902 42.6212 37.4962 42.2576 37.5 41.8409C37.4962 41.4015 37.3826 41.0133 37.1591 40.6761C36.9356 40.339 36.6307 40.0739 36.2443 39.8807C35.8617 39.6875 35.4242 39.5909 34.9318 39.5909C34.4356 39.5909 33.9924 39.6875 33.6023 39.8807C33.2159 40.0739 32.911 40.339 32.6875 40.6761C32.4678 41.0133 32.3598 41.4015 32.3636 41.8409C32.3598 42.2576 32.4602 42.6212 32.6648 42.9318C32.8731 43.2424 33.1705 43.483 33.5568 43.6534C33.9432 43.8239 34.4015 43.9091 34.9318 43.9091ZM34.9318 38.3864C35.3485 38.3864 35.7178 38.303 36.0398 38.1364C36.3655 37.9697 36.6212 37.7367 36.8068 37.4375C36.9924 37.1383 37.0871 36.7879 37.0909 36.3864C37.0871 35.9924 36.9943 35.6496 36.8125 35.358C36.6307 35.0625 36.3788 34.8352 36.0568 34.6761C35.7348 34.5133 35.3598 34.4318 34.9318 34.4318C34.4962 34.4318 34.1155 34.5133 33.7898 34.6761C33.464 34.8352 33.2121 35.0625 33.0341 35.358C32.8561 35.6496 32.7689 35.9924 32.7727 36.3864C32.7689 36.7879 32.858 37.1383 33.0398 37.4375C33.2254 37.7367 33.4811 37.9697 33.8068 38.1364C34.1326 38.303 34.5076 38.3864 34.9318 38.3864Z"
        fill="white" fill-opacity="0.79" />
    <path
        d="M35.0682 125.159C34.5909 125.152 34.1136 125.061 33.6364 124.886C33.1591 124.712 32.7235 124.419 32.3295 124.006C31.9356 123.589 31.6193 123.027 31.3807 122.318C31.142 121.606 31.0227 120.712 31.0227 119.636C31.0227 118.606 31.1193 117.693 31.3125 116.898C31.5057 116.098 31.786 115.426 32.1534 114.881C32.5208 114.331 32.964 113.915 33.483 113.631C34.0057 113.347 34.5947 113.205 35.25 113.205C35.9015 113.205 36.4811 113.335 36.9886 113.597C37.5 113.854 37.9167 114.214 38.2386 114.676C38.5606 115.138 38.7689 115.67 38.8636 116.273H37.4773C37.3485 115.75 37.0985 115.316 36.7273 114.972C36.3561 114.627 35.8636 114.455 35.25 114.455C34.3485 114.455 33.6383 114.847 33.1193 115.631C32.6042 116.415 32.3447 117.515 32.3409 118.932H32.4318C32.6439 118.61 32.8958 118.335 33.1875 118.108C33.483 117.877 33.8087 117.699 34.1648 117.574C34.5208 117.449 34.8977 117.386 35.2955 117.386C35.9621 117.386 36.572 117.553 37.125 117.886C37.678 118.216 38.1212 118.672 38.4545 119.256C38.7879 119.835 38.9545 120.5 38.9545 121.25C38.9545 121.97 38.7936 122.629 38.4716 123.227C38.1496 123.822 37.697 124.295 37.1136 124.648C36.5341 124.996 35.8523 125.167 35.0682 125.159ZM35.0682 123.909C35.5455 123.909 35.9735 123.79 36.3523 123.551C36.7348 123.312 37.036 122.992 37.2557 122.591C37.4792 122.189 37.5909 121.742 37.5909 121.25C37.5909 120.769 37.483 120.331 37.267 119.938C37.0549 119.54 36.7614 119.223 36.3864 118.989C36.0152 118.754 35.5909 118.636 35.1136 118.636C34.7538 118.636 34.4186 118.708 34.108 118.852C33.7973 118.992 33.5246 119.186 33.2898 119.432C33.0587 119.678 32.8769 119.96 32.7443 120.278C32.6117 120.593 32.5455 120.924 32.5455 121.273C32.5455 121.735 32.6534 122.167 32.8693 122.568C33.089 122.97 33.3883 123.294 33.767 123.54C34.1496 123.786 34.5833 123.909 35.0682 123.909Z"
        fill="white" fill-opacity="0.79" />
    <path
        d="M31.5682 85L36.7727 74.7045V74.6136H30.7727V73.3636H38.2273V74.6818L33.0455 85H31.5682Z"
        fill="white" fill-opacity="0.79" />
    <path
        d="M34.8409 165.159C34.1742 165.159 33.5739 165.027 33.0398 164.761C32.5057 164.496 32.0777 164.133 31.7557 163.67C31.4337 163.208 31.2576 162.682 31.2273 162.091H32.5909C32.6439 162.617 32.8826 163.053 33.3068 163.398C33.7348 163.739 34.2462 163.909 34.8409 163.909C35.3182 163.909 35.7424 163.797 36.1136 163.574C36.4886 163.35 36.7822 163.044 36.9943 162.653C37.2102 162.259 37.3182 161.814 37.3182 161.318C37.3182 160.811 37.2064 160.358 36.983 159.96C36.7633 159.559 36.4602 159.242 36.0739 159.011C35.6875 158.78 35.2462 158.663 34.75 158.659C34.3939 158.655 34.0284 158.71 33.6534 158.824C33.2784 158.934 32.9697 159.076 32.7273 159.25L31.4091 159.091L32.1136 153.364H38.1591V154.614H33.2955L32.8864 158.045H32.9545C33.1932 157.856 33.4924 157.699 33.8523 157.574C34.2121 157.449 34.5871 157.386 34.9773 157.386C35.6894 157.386 36.3239 157.557 36.8807 157.898C37.4413 158.235 37.8807 158.697 38.1989 159.284C38.5208 159.871 38.6818 160.542 38.6818 161.295C38.6818 162.038 38.5152 162.701 38.1818 163.284C37.8523 163.864 37.3977 164.322 36.8182 164.659C36.2386 164.992 35.5795 165.159 34.8409 165.159Z"
        fill="white" fill-opacity="0.79" />
    <path
        d="M30.9318 202.614V201.455L36.0455 193.364H36.8864V195.159H36.3182L32.4545 201.273V201.364H39.3409V202.614H30.9318ZM36.4091 205V202.261V201.722V193.364H37.75V205H36.4091Z"
        fill="white" fill-opacity="0.79" />
    <path
        d="M35.1364 245.159C34.3864 245.159 33.7178 245.03 33.1307 244.773C32.5473 244.515 32.0833 244.157 31.7386 243.699C31.3977 243.237 31.2121 242.701 31.1818 242.091H32.6136C32.6439 242.466 32.7727 242.79 33 243.062C33.2273 243.331 33.5246 243.54 33.892 243.688C34.2595 243.835 34.6667 243.909 35.1136 243.909C35.6136 243.909 36.0568 243.822 36.4432 243.648C36.8295 243.473 37.1326 243.231 37.3523 242.92C37.572 242.61 37.6818 242.25 37.6818 241.841C37.6818 241.413 37.5758 241.036 37.3636 240.71C37.1515 240.381 36.8409 240.123 36.4318 239.938C36.0227 239.752 35.5227 239.659 34.9318 239.659H34V238.409H34.9318C35.3939 238.409 35.7992 238.326 36.1477 238.159C36.5 237.992 36.7746 237.758 36.9716 237.455C37.1723 237.152 37.2727 236.795 37.2727 236.386C37.2727 235.992 37.1856 235.65 37.0114 235.358C36.8371 235.066 36.5909 234.839 36.2727 234.676C35.9583 234.513 35.5871 234.432 35.1591 234.432C34.7576 234.432 34.3788 234.506 34.0227 234.653C33.6705 234.797 33.3826 235.008 33.1591 235.284C32.9356 235.557 32.8144 235.886 32.7955 236.273H31.4318C31.4545 235.663 31.6383 235.129 31.983 234.67C32.3277 234.208 32.7784 233.848 33.3352 233.591C33.8958 233.333 34.5114 233.205 35.1818 233.205C35.9015 233.205 36.5189 233.35 37.0341 233.642C37.5492 233.93 37.9451 234.311 38.2216 234.784C38.4981 235.258 38.6364 235.769 38.6364 236.318C38.6364 236.973 38.464 237.532 38.1193 237.994C37.7784 238.456 37.3144 238.777 36.7273 238.955V239.045C37.4621 239.167 38.036 239.479 38.4489 239.983C38.8617 240.483 39.0682 241.102 39.0682 241.841C39.0682 242.473 38.8958 243.042 38.5511 243.545C38.2102 244.045 37.7443 244.439 37.1534 244.727C36.5625 245.015 35.8902 245.159 35.1364 245.159Z"
        fill="white" fill-opacity="0.79" />
    <path
        d="M31.2045 285V283.977L35.0455 279.773C35.4962 279.28 35.8674 278.852 36.1591 278.489C36.4508 278.121 36.6667 277.777 36.8068 277.455C36.9508 277.129 37.0227 276.788 37.0227 276.432C37.0227 276.023 36.9242 275.669 36.7273 275.369C36.5341 275.07 36.2689 274.839 35.9318 274.676C35.5947 274.513 35.2159 274.432 34.7955 274.432C34.3485 274.432 33.9583 274.525 33.625 274.71C33.2955 274.892 33.0398 275.148 32.858 275.477C32.6799 275.807 32.5909 276.193 32.5909 276.636H31.25C31.25 275.955 31.4072 275.356 31.7216 274.841C32.036 274.326 32.464 273.924 33.0057 273.636C33.5511 273.348 34.1629 273.205 34.8409 273.205C35.5227 273.205 36.1269 273.348 36.6534 273.636C37.1799 273.924 37.5928 274.312 37.892 274.801C38.1913 275.29 38.3409 275.833 38.3409 276.432C38.3409 276.86 38.2633 277.278 38.108 277.688C37.9564 278.093 37.6913 278.545 37.3125 279.045C36.9375 279.542 36.4167 280.148 35.75 280.864L33.1364 283.659V283.75H38.5455V285H31.2045Z"
        fill="white" fill-opacity="0.79" />
    <path
        d="M35.2955 313.364V325H33.8864V314.841H33.8182L30.9773 316.727V315.295L33.8864 313.364H35.2955Z"
        fill="white" fill-opacity="0.79" />
    <path
        d="M35 365.159C34.1439 365.159 33.4148 364.926 32.8125 364.46C32.2102 363.991 31.75 363.311 31.4318 362.42C31.1136 361.527 30.9545 360.447 30.9545 359.182C30.9545 357.924 31.1136 356.85 31.4318 355.96C31.7538 355.066 32.2159 354.384 32.8182 353.915C33.4242 353.441 34.1515 353.205 35 353.205C35.8485 353.205 36.5739 353.441 37.1761 353.915C37.7822 354.384 38.2443 355.066 38.5625 355.96C38.8845 356.85 39.0455 357.924 39.0455 359.182C39.0455 360.447 38.8864 361.527 38.5682 362.42C38.25 363.311 37.7898 363.991 37.1875 364.46C36.5852 364.926 35.8561 365.159 35 365.159ZM35 363.909C35.8485 363.909 36.5076 363.5 36.9773 362.682C37.447 361.864 37.6818 360.697 37.6818 359.182C37.6818 358.174 37.5739 357.316 37.358 356.608C37.1458 355.9 36.839 355.36 36.4375 354.989C36.0398 354.617 35.5606 354.432 35 354.432C34.1591 354.432 33.5019 354.847 33.0284 355.676C32.5549 356.502 32.3182 357.67 32.3182 359.182C32.3182 360.189 32.4242 361.045 32.6364 361.75C32.8485 362.455 33.1534 362.991 33.5511 363.358C33.9527 363.725 34.4356 363.909 35 363.909Z"
        fill="white" fill-opacity="0.79" />
    <rect x="105" y="319" width="10" height="41" fill="#F97316" />
    <rect x="190" y="39" width="10" height="321" fill="#439E29" />
    <rect x="275" y="119" width="10" height="241" fill="#F97316" />
    <rect x="615" y="39" width="10" height="321" fill="#F97316" />
    <rect x="700" y="239" width="10" height="121" fill="#F97316" />
    <rect x="785" y="79" width="10" height="281" fill="#439E29" />
    <rect x="360" y="279" width="10" height="81" fill="#F97316" />
    <rect x="445" y="159" width="10" height="201" fill="#F97316" />
    <rect x="530" y="199" width="10" height="161" fill="#F97316" />
</svg>