<svg xmlns="http://www.w3.org/2000/svg" width="148" height="32" fill="none" viewBox="0 0 148 32"><path fill="#103DA6" fill-rule="evenodd" d="M19.548 14.211A5.332 5.332 0 0 0 14.284 8a5.334 5.334 0 0 0-5.32 4.901C2.97 15.931-.913 20.076.186 22.417c1.148 2.482 7.441 1.986 14.04-1.07 6.581-3.074 10.33-7.886 9.183-10.35-.42-.916-1.912-1.244-3.252-1.244-.134 0-.705.003 0 .443.306.19.535.44.67.764.349.876-.173 2.055-1.279 3.251Zm-6.866 4.2c-3.078 1.022-5.678.89-6.298-.443-.587-1.244 0-2.784 2.563-4.652v.011a5.33 5.33 0 0 0 3.735 5.084Z" clip-rule="evenodd"/><path fill="#103DA6" d="M143.58 8.285v.898c-.077-.039-.172-.039-.306-.039a.75.75 0 0 0-.574.23c-.134.152-.211.362-.211.649v1.585h-.918V8.304h.918v.401a.328.328 0 0 1 .115-.114c.058-.058.153-.115.325-.191a1.27 1.27 0 0 1 .517-.115h.134Z"/><path fill="#103DA6" fill-rule="evenodd" d="M61.783 18.177h10.77l1.721 1.833h3.52L68.67 9.87h-2.985l-9.143 10.14h3.5l1.741-1.833ZM70.487 16H63.83l3.328-3.514L70.487 16Zm-42.199 4.01h2.659v-2.426h7.44c.536 0 1.034-.114 1.493-.305a3.832 3.832 0 0 0 2.047-2.043 3.52 3.52 0 0 0 .306-1.49c0-.515-.096-1.012-.287-1.47a3.58 3.58 0 0 0-.804-1.222 3.75 3.75 0 0 0-1.205-.821 3.852 3.852 0 0 0-1.473-.325H28.288V20.01Zm9.966-4.87h-7.327v-2.807h7.289c.19 0 .382.038.554.115.172.076.325.172.46.305.133.115.229.268.306.44.076.152.114.343.114.534 0 .382-.134.726-.401.993-.268.287-.613.42-.995.42Z" clip-rule="evenodd"/><path fill="#103DA6" d="M81.467 12.963v7.046h-2.66V9.91h2.775l11.19 7.045V9.908h2.66V20.01h-2.679l-11.286-7.046Zm18.67.764v-1.642h10.961V9.908h-13.62V20.01h13.62v-2.195h-10.961v-1.89h9.411v-2.197h-9.411Zm27.355-1.661h-5.949v7.943h-2.678v-7.943h-5.95V9.908h14.577v2.158Z"/><path fill="#103DA6" fill-rule="evenodd" d="M128.717 18.177h10.769l1.741 1.833h3.52l-9.144-10.14h-2.984l-9.144 10.14h3.501l1.741-1.833ZM137.42 16h-6.657l3.329-3.514L137.42 16Z" clip-rule="evenodd"/><path fill="#103DA6" d="M55.47 17.584v2.425H43.86V9.91h2.678v7.675h8.933Zm84.398-6.435c0 .153.039.267.154.363a.532.532 0 0 0 .382.152.57.57 0 0 0 .383-.152c.095-.115.153-.21.153-.363s-.039-.267-.153-.363a.57.57 0 0 0-.383-.153.566.566 0 0 0-.382.153c-.096.115-.154.21-.154.363Zm6.371.115v.343h.937V8.304h-.918v1.737a.86.86 0 0 1-.191.573.665.665 0 0 1-.498.21.622.622 0 0 1-.459-.171c-.134-.115-.191-.268-.191-.459v-1.89h-.918v1.967c0 .42.134.763.363 1.012.23.248.536.382.918.382.172 0 .345-.039.517-.115.172-.076.268-.134.325-.172a.328.328 0 0 0 .115-.114Z"/></svg>
